<?xml version="1.0" encoding="UTF-8"?>
<svg version="1.1" xmlns="http://www.w3.org/2000/svg" width="102" height="102">
  <path d="M0 0 C1.95999459 -0.07002298 3.9208803 -0.11357217 5.88166517 -0.15605374 C7.56829295 -0.19756106 7.56829295 -0.19756106 9.28899401 -0.23990692 C10.16896068 -0.13405606 11.04892735 -0.0282052 11.95555967 0.08085327 C14.27370445 3.55807043 14.14632396 4.81454891 14.01805967 8.89335327 C13.94187586 13.12917309 14.21370005 16.90789287 14.95555967 21.08085327 C14.98788899 23.33582359 14.95735076 25.58055337 14.89305967 27.83475952 C14.88766605 30.11016713 14.88766605 30.11016713 15.45555967 32.40092163 C15.95618723 35.08421691 16.05466775 37.48058541 16.01805967 40.20585327 C16.0103253 41.15975952 16.00259092 42.11366577 15.99462217 43.09647827 C15.9685805 45.0860616 15.94253884 47.07564494 15.91649717 49.06522827 C15.9087628 50.01913452 15.90102842 50.97304077 15.89305967 51.95585327 C15.87565733 53.25136108 15.87565733 53.25136108 15.85790342 54.57304077 C15.95916983 57.17356223 16.42765946 59.53695617 16.95555967 62.08085327 C16.95555967 64.4141866 16.95555967 66.74751994 16.95555967 69.08085327 C17.18243467 70.29772827 17.40930967 71.51460327 17.64305967 72.76835327 C17.95555967 76.08085327 17.95555967 76.08085327 16.96478075 78.23246269 C14.00334298 80.95684864 10.96408234 80.8147711 7.12052244 80.96760254 C5.87741951 81.04015703 5.87741951 81.04015703 4.6092034 81.11417727 C1.74903053 81.27636185 -1.11183612 81.41080921 -3.97339541 81.5461853 C-6.09169996 81.66061455 -8.20990891 81.7768245 -10.32802969 81.8946064 C-15.16442307 82.15997029 -20.00128625 82.41297281 -24.83872515 82.65852813 C-32.89372853 83.06802108 -40.94676745 83.51082561 -48.99978603 83.95744443 C-71.72511321 85.21714761 -94.45298173 86.42854062 -117.18115908 87.63554077 C-118.658572 87.7140233 -118.658572 87.7140233 -120.16583166 87.79409133 C-139.81263985 88.83771183 -159.45957991 89.87883339 -179.10680586 90.91456108 C-183.37402382 91.13955193 -187.64123996 91.36457714 -191.908454 91.58964233 C-192.96858215 91.64555444 -194.0287103 91.70146655 -195.12096355 91.75907296 C-212.42598178 92.67211931 -229.73028346 93.59811751 -247.03434929 94.52902094 C-264.88832761 95.48927037 -282.74292239 96.43730537 -300.59817827 97.37350361 C-310.5897846 97.89771332 -320.58103622 98.42739116 -330.5716067 98.97101669 C-339.04025052 99.43181556 -347.50938159 99.88172347 -355.97937091 100.31712303 C-360.29666423 100.53939902 -364.61350687 100.76699444 -368.92975909 101.00871162 C-372.87689278 101.22963843 -376.82450929 101.43563686 -380.77305607 101.62962359 C-382.20268892 101.70252156 -383.63205224 101.78095372 -385.0610496 101.86539748 C-386.99939735 101.97913747 -388.93899388 102.07096772 -390.87855726 102.16164665 C-391.95638478 102.21887708 -393.03421229 102.27610752 -394.14470124 102.3350722 C-397.55972641 102.03567835 -399.34483144 101.1670646 -402.04444033 99.08085327 C-403.02504244 96.13904693 -403.26660979 93.91616297 -403.43335634 90.83768921 C-403.49334307 89.76516906 -403.55332979 88.69264892 -403.6151343 87.58762817 C-403.67559435 86.4252362 -403.7360544 85.26284424 -403.79834658 84.06522827 C-403.86351977 82.8620697 -403.92869295 81.65891113 -403.99584109 80.41929321 C-404.13315344 77.86388107 -404.26835216 75.30835463 -404.40161806 72.75272827 C-404.60395939 68.88779243 -404.81489302 65.02339658 -405.0268622 61.15897827 C-406.16575851 40.03314536 -406.16575851 40.03314536 -406.32178408 30.97147827 C-406.34361758 29.87351928 -406.36545107 28.7755603 -406.38794619 27.64432983 C-406.04444033 25.08085327 -406.04444033 25.08085327 -404.65210634 23.27518921 C-401.33314432 20.80953055 -398.70009222 20.84551582 -394.60612017 20.62984066 C-393.93434573 20.59323097 -393.26257129 20.55662127 -392.57044005 20.5189022 C-390.29735115 20.3961349 -388.02397783 20.27978601 -385.75055605 20.16335754 C-384.11299208 20.07625296 -382.47544879 19.98875861 -380.83792478 19.90090595 C-376.3204506 19.65969868 -371.80269837 19.42409961 -367.28488284 19.18938486 C-362.41872314 18.93561118 -357.55283541 18.67672019 -352.68691164 18.41846924 C-343.14419285 17.91284192 -333.60122651 17.41204137 -324.05816606 16.91290841 C-316.2984261 16.50695002 -308.53878228 16.09919878 -300.77920443 15.69015388 C-299.67614839 15.63200679 -298.57309236 15.57385969 -297.43661039 15.51395056 C-295.19585043 15.39582012 -292.95509073 15.27768464 -290.7143313 15.15954416 C-269.6731218 14.05037503 -248.63163388 12.94656351 -227.59004346 11.84464764 C-209.54713145 10.89965605 -191.50444439 9.95046742 -173.4619208 8.9980896 C-152.51626053 7.89247309 -131.57047856 6.78921192 -110.6244877 5.68987499 C-108.38814683 5.57249759 -106.15180607 5.45511823 -103.91546541 5.33773689 C-102.81514536 5.27998556 -101.71482531 5.22223423 -100.58116223 5.16273287 C-92.8396072 4.75625726 -85.09813979 4.34813856 -77.35670382 3.93940239 C-67.90884878 3.44062716 -58.46085776 2.94452501 -49.01268652 2.45177446 C-44.19475543 2.20044237 -39.37689206 1.94796385 -34.55918986 1.69227867 C-30.14112254 1.45783857 -25.72288859 1.22684138 -21.30450252 0.99848979 C-19.7134091 0.91567412 -18.12237813 0.83164691 -16.53142247 0.74622581 C-11.02207712 0.45090399 -5.51294109 0.2180251 0 0 Z M12.95555967 31.08085327 C13.95555967 33.08085327 13.95555967 33.08085327 13.95555967 33.08085327 Z " fill="#ffd60a" transform="translate(406.04444032907486,-0.08085326850414276)"/>
  <path d="" fill="#FEFFFF" transform="translate(0,0)"/>
</svg>
