<svg width="64" height="58" viewBox="0 0 64 58" fill="none" xmlns="http://www.w3.org/2000/svg">
<path d="M2.34766 16.1308C3.40266 14.114 4.77266 12.2794 5.95746 10.3399C7.18516 8.33011 8.35246 6.28011 9.72156 4.36201C10.0683 3.87631 10.3714 3.37041 10.7974 2.94891C11.0839 2.66551 10.7837 3.39981 10.7585 3.50091C10.4308 4.81251 10.452 6.23631 10.5527 7.57581C10.6888 9.38451 10.8099 11.0028 10.735 12.8335C10.6692 14.4419 10.9164 16.273 11.0753 17.9765C11.1779 19.0773 11.4763 20.1486 11.5393 21.2519C11.5515 21.4664 11.5179 21.8029 11.6239 22.0009C11.7083 22.1584 12.1591 21.4661 12.1829 21.4332C14.6209 18.0636 16.636 14.3981 18.7075 10.7993C19.406 9.58591 20.1591 8.40911 20.977 7.27261C21.0327 7.19531 21.6487 6.46261 21.6695 6.53671" stroke="black" stroke-width="3" stroke-linecap="round"/>
<path d="M20.1757 19.2858C22.4559 19.4483 24.7409 19.3684 26.9828 18.8769C28.7231 18.4953 30.7071 17.943 31.779 16.4009C32.3545 15.573 32.9175 13.647 31.7483 13.0508C31.1214 12.7312 30.3604 12.7812 29.6821 12.8332C28.529 12.9217 27.382 13.0817 26.2812 13.4474C25.2707 13.7831 24.3357 14.2505 23.4745 14.8803C22.5434 15.5614 21.8712 16.4075 21.2077 17.3409C19.7765 19.3541 18.3674 21.3747 18.4173 23.9506C18.4535 25.8147 19.7759 27.1167 21.4823 27.663C22.181 27.8867 22.9847 28.1329 23.7262 28.0169C24.347 27.9199 24.8777 27.539 25.4304 27.2666" stroke="black" stroke-width="3" stroke-linecap="round"/>
<path d="M36.0716 16.4094C35.6846 17.8226 35.5499 19.275 35.1656 20.6896C34.5337 23.0151 33.5539 25.206 32.676 27.4428C32.2966 28.4095 31.9505 29.3875 31.6334 30.3766C31.4517 30.9434 31.2664 31.5173 31.2404 32.1174C31.239 32.1508 31.2476 32.8043 31.4032 32.696C32.0882 32.2189 32.6454 31.5216 33.3161 31.0123C34.7623 29.9141 36.2226 28.8344 37.668 27.7349C38.8899 26.8055 40.1214 25.8898 41.3309 24.9442C41.4938 24.8168 41.6649 24.6045 41.8486 24.5076C41.9897 24.4332 41.7447 24.8085 41.6927 24.9589C41.3503 25.9502 41.2043 27.021 40.9973 28.0461C40.7196 29.4213 40.27 30.7499 39.9172 32.1062C39.6112 33.2827 39.0835 34.4622 38.9148 35.6681C38.898 35.7877 38.8892 36.9176 39.1628 36.4342C39.5322 35.7817 40.0497 35.2457 40.5704 34.7052C42.1049 33.1121 43.752 31.6355 45.3165 30.0727C46.7883 28.6025 48.2229 27.1284 49.5746 25.5491C50.0052 25.046 50.4649 24.5546 51.0181 24.185" stroke="black" stroke-width="3" stroke-linecap="round"/>
<path d="M60.434 22.7234C59.4952 24.5018 58.0075 25.8021 56.8183 27.4037C55.4453 29.2529 53.9871 31.0538 52.519 32.826C51.8271 33.6612 50.814 34.5813 50.4794 35.6532C50.3599 36.0359 50.4963 35.5899 50.5451 35.4595" stroke="black" stroke-width="3" stroke-linecap="round"/>
<path d="M10.4019 35.5259C10.438 38.9126 9.7209 42.27 9.3686 45.6289C9.1498 47.7156 8.785 49.7752 8.2954 51.814C8.2806 51.8755 7.8695 53.2234 8.0712 53.2482C8.2421 53.2693 8.4671 52.9478 8.5551 52.8439C8.9304 52.4011 9.2968 51.9516 9.6874 51.5218C11.0381 50.0358 12.6843 48.8584 14.3849 47.8026C16.5085 46.4842 18.7558 45.4329 21.0555 44.458C21.863 44.1157 22.8827 43.8086 23.563 43.2513" stroke="black" stroke-width="3" stroke-linecap="round"/>
<path d="M46.1186 40.0139C46.1415 40.1419 46.1928 40.7471 46.4481 40.482C46.5068 40.421 46.5176 40.373 46.4674 40.3018C46.3437 40.1264 46.0902 40.0735 45.972 40.2729C45.7805 40.5959 46.3178 40.6698 46.0267 40.5051" stroke="black" stroke-width="3" stroke-linecap="round"/>
</svg>
